<?xml version="1.0" encoding="utf-8"?>
<!-- Generator: Adobe Illustrator 16.0.0, SVG Export Plug-In . SVG Version: 6.00 Build 0)  -->
<!DOCTYPE svg PUBLIC "-//W3C//DTD SVG 1.1//EN" "http://www.w3.org/Graphics/SVG/1.1/DTD/svg11.dtd">
<svg version="1.1" id="Layer_1" xmlns="http://www.w3.org/2000/svg" xmlns:xlink="http://www.w3.org/1999/xlink" x="0px" y="0px"
	 width="100px" height="100px" viewBox="0 0 100 100" enable-background="new 0 0 100 100" xml:space="preserve">
<rect fill="#595959" width="100" height="100"/>
<path fill="#FFFFFF" d="M11.633,29.58l35.894,29.299c0.35,0.301,0.737,0.525,1.162,0.674c0.425,0.152,0.861,0.225,1.311,0.225
	s0.889-0.071,1.311-0.225c0.426-0.148,0.812-0.373,1.162-0.674L88.367,29.58v46.01H11.633V29.58z M82.445,24.41L52.1,49.213
	c-0.301,0.25-0.625,0.449-0.975,0.599c-0.352,0.15-0.725,0.226-1.125,0.226c-0.399,0-0.774-0.075-1.124-0.226
	c-0.35-0.15-0.674-0.349-0.975-0.599L17.553,24.41H82.445z"/>
</svg>
