<?xml version="1.0" encoding="utf-8"?>
<!-- Generator: Adobe Illustrator 16.0.0, SVG Export Plug-In . SVG Version: 6.00 Build 0)  -->
<!DOCTYPE svg PUBLIC "-//W3C//DTD SVG 1.1//EN" "http://www.w3.org/Graphics/SVG/1.1/DTD/svg11.dtd">
<svg version="1.1" id="Layer_1" xmlns="http://www.w3.org/2000/svg" xmlns:xlink="http://www.w3.org/1999/xlink" x="0px" y="0px"
	 width="100px" height="100px" viewBox="0 0 100 100" enable-background="new 0 0 100 100" xml:space="preserve">
<rect fill="#425F9C" width="100" height="100"/>
<path fill="#FFFFFF" d="M29.21,52.428V39.451h9.75v-3.374c0-2.251,0-4.825,0-7.726c0-2.15,0.364-4.238,1.089-6.263
	c0.725-2.023,1.849-3.812,3.374-5.362c1.525-1.55,3.45-2.788,5.777-3.713c2.325-0.925,5.112-1.387,8.362-1.387
	c2.649,0,4.838,0.088,6.562,0.262l2.59,0.264l-0.307,12.526l-2.552-0.039c-1.707-0.023-3.668-0.038-5.905-0.038
	c-2.337,0-3.839,0.5-4.501,1.5c-0.655,1.001-0.986,2.378-0.986,4.132c0,0.196,0,0.344,0,0.442v0.146c0,0.488,0,1.388,0,2.707
	c0,1.317,0,3.292,0,5.924h14.325l-0.61,12.978H52.463v36H38.961V52.428H29.21z"/>
</svg>
