<?xml version="1.0" encoding="utf-8"?>
<!-- Generator: Adobe Illustrator 16.0.0, SVG Export Plug-In . SVG Version: 6.00 Build 0)  -->
<!DOCTYPE svg PUBLIC "-//W3C//DTD SVG 1.1//EN" "http://www.w3.org/Graphics/SVG/1.1/DTD/svg11.dtd">
<svg version="1.1" id="Layer_1" xmlns="http://www.w3.org/2000/svg" xmlns:xlink="http://www.w3.org/1999/xlink" x="0px" y="0px"
	 width="100px" height="100px" viewBox="0 0 100 100" enable-background="new 0 0 100 100" xml:space="preserve">
<g id="White_1_" display="none">
	<path display="inline" fill="#FF5615" d="M82.025,14H17.974C15.779,14,14,15.779,14,17.974v64.053C14,84.221,15.779,86,17.974,86
		h34.483V58.118h-9.383V47.252h9.383v-8.014c0-9.3,5.68-14.363,13.977-14.363c3.976,0,7.391,0.295,8.385,0.428v9.719l-5.754,0.003
		c-4.513,0-5.385,2.144-5.385,5.29v6.938h10.76L73.04,58.119h-9.36V86h18.348C84.221,86,86,84.221,86,82.025V17.974
		C86,15.779,84.221,14,82.025,14z"/>
</g>
<path fill="#425F9C" d="M29.21,52.428V39.451h9.75v-3.374c0-2.251,0-4.825,0-7.726c0-2.15,0.364-4.238,1.089-6.263
	c0.725-2.023,1.849-3.812,3.374-5.362c1.525-1.55,3.45-2.788,5.777-3.713c2.325-0.925,5.112-1.387,8.363-1.387
	c2.649,0,4.837,0.088,6.561,0.262l2.59,0.264l-0.307,12.526l-2.551-0.039c-1.707-0.023-3.668-0.038-5.906-0.038
	c-2.337,0-3.839,0.5-4.501,1.5c-0.655,1.001-0.986,2.378-0.986,4.132c0,0.196,0,0.344,0,0.442v0.146c0,0.488,0,1.388,0,2.707
	c0,1.317,0,3.292,0,5.924h14.325l-0.61,12.978H52.463v36H38.961V52.428H29.21z"/>
</svg>
