<?xml version="1.0" encoding="utf-8"?>
<!-- Generator: Adobe Illustrator 16.0.0, SVG Export Plug-In . SVG Version: 6.00 Build 0)  -->
<!DOCTYPE svg PUBLIC "-//W3C//DTD SVG 1.1//EN" "http://www.w3.org/Graphics/SVG/1.1/DTD/svg11.dtd">
<svg version="1.1" id="Layer_1" xmlns="http://www.w3.org/2000/svg" xmlns:xlink="http://www.w3.org/1999/xlink" x="0px" y="0px"
	 width="100px" height="100px" viewBox="0 0 100 100" enable-background="new 0 0 100 100" xml:space="preserve">
<rect fill="#DF4B38" width="100" height="100"/>
<g>
	<path fill="#FFFFFF" d="M10.28,70.602c0.26-0.924,0.649-1.899,1.169-2.928c0.467-1.026,1.156-1.989,2.064-2.889
		c0.909-0.898,2.013-1.733,3.312-2.504c1.506-0.821,3.026-1.515,4.558-2.08c1.533-0.564,3.104-0.976,4.714-1.232
		c1.609-0.257,3.077-0.449,4.402-0.578c1.324-0.128,2.532-0.192,3.623-0.192c-0.349-0.463-0.661-0.911-0.936-1.349
		c-0.274-0.437-0.536-0.911-0.786-1.425c-0.249-0.463-0.449-0.976-0.599-1.541c-0.149-0.564-0.225-1.181-0.225-1.85
		c0-0.359,0.025-0.706,0.075-1.04c0.05-0.333,0.124-0.629,0.225-0.886c0.1-0.308,0.199-0.59,0.3-0.848
		c0.1-0.256,0.174-0.487,0.224-0.693c-0.519,0.052-1.011,0.091-1.478,0.116s-0.934,0.038-1.399,0.038
		c-2.438-0.051-4.577-0.449-6.417-1.194c-1.841-0.744-3.383-1.836-4.627-3.274c-1.296-1.387-2.281-2.875-2.956-4.468
		c-0.674-1.592-1.011-3.312-1.011-5.162c0-2.157,0.46-4.237,1.38-6.241c0.92-2.003,2.3-3.903,4.141-5.701
		c1.278-1.027,2.582-1.874,3.91-2.542c1.329-0.667,2.684-1.181,4.063-1.541c1.33-0.256,2.633-0.437,3.911-0.54
		c1.278-0.102,2.505-0.154,3.681-0.154h17.865l-5.148,3.159h-5.715c0.317,0,0.635,0.167,0.952,0.5
		c0.317,0.334,0.661,0.655,1.032,0.963c0.317,0.36,0.647,0.745,0.992,1.155c0.344,0.411,0.701,0.874,1.071,1.387
		c0.317,0.462,0.608,0.976,0.873,1.541c0.265,0.565,0.529,1.182,0.794,1.849c0.212,0.668,0.37,1.387,0.477,2.157
		c0.105,0.771,0.158,1.593,0.158,2.465c-0.053,1.593-0.265,3.031-0.635,4.314c-0.371,1.285-0.899,2.414-1.587,3.39
		c-0.318,0.462-0.662,0.899-1.032,1.31c-0.371,0.412-0.768,0.822-1.19,1.233c-0.424,0.411-0.859,0.809-1.309,1.193
		c-0.449,0.386-0.911,0.784-1.386,1.194c-0.265,0.309-0.528,0.616-0.792,0.925s-0.502,0.643-0.713,1.002
		c-0.264,0.359-0.476,0.745-0.634,1.155c-0.158,0.411-0.237,0.873-0.237,1.387c0,0.462,0.079,0.886,0.236,1.271
		c0.158,0.385,0.369,0.731,0.633,1.04c0.263,0.308,0.499,0.577,0.71,0.809s0.447,0.476,0.713,0.732l3.096,2.465
		c0.929,0.771,1.783,1.579,2.566,2.427c0.782,0.848,1.516,1.76,2.2,2.735c0.636,0.925,1.124,2.003,1.467,3.235
		c0.342,1.233,0.514,2.62,0.514,4.161c0,2.157-0.475,4.198-1.423,6.124c-0.949,1.927-2.397,3.737-4.345,5.432
		c-1.948,1.747-4.357,3.069-7.229,3.968c-2.871,0.899-6.178,1.374-9.921,1.426c-3.179-0.052-5.934-0.411-8.267-1.079
		c-2.333-0.667-4.268-1.643-5.806-2.928c-1.539-1.232-2.705-2.58-3.5-4.044s-1.192-3.044-1.192-4.738
		C9.891,72.399,10.021,71.526,10.28,70.602z M18.833,75.609c0.722,1.285,1.78,2.44,3.173,3.467c1.393,1.028,3.017,1.811,4.875,2.351
		c1.857,0.539,3.972,0.809,6.346,0.809c2.106,0,3.971-0.244,5.59-0.731c1.619-0.488,2.993-1.169,4.124-2.042
		c1.079-0.873,1.889-1.888,2.429-3.043c0.54-1.156,0.81-2.427,0.81-3.813c0-1.182-0.182-2.26-0.545-3.236
		c-0.362-0.976-0.933-1.9-1.71-2.773c-0.777-0.771-1.788-1.656-3.032-2.658c-1.245-1.001-2.722-2.066-4.433-3.197
		c-0.26-0.051-0.554-0.077-0.883-0.077s-0.696,0-1.101,0c-0.203-0.051-0.595-0.063-1.178-0.038s-1.329,0.09-2.24,0.192
		c-0.911,0.104-1.836,0.27-2.772,0.501s-1.886,0.476-2.848,0.731c-0.253,0.104-0.533,0.219-0.84,0.347
		c-0.307,0.129-0.664,0.271-1.074,0.424c-0.422,0.206-0.857,0.45-1.305,0.732c-0.449,0.282-0.884,0.604-1.305,0.963
		c-0.422,0.36-0.817,0.758-1.186,1.194c-0.37,0.437-0.686,0.938-0.949,1.502c-0.37,0.565-0.633,1.194-0.791,1.888
		c-0.158,0.693-0.237,1.425-0.237,2.195C17.749,72.888,18.11,74.326,18.833,75.609z M23.057,35.239
		c0.457,1.695,1.167,3.416,2.131,5.162c0.456,0.822,0.976,1.579,1.56,2.272c0.583,0.693,1.231,1.323,1.941,1.888
		c0.71,0.565,1.472,0.989,2.283,1.271s1.699,0.424,2.663,0.424c1.167-0.052,2.232-0.283,3.196-0.693
		c0.964-0.411,1.827-1.027,2.588-1.85c0.405-0.564,0.723-1.143,0.951-1.733c0.229-0.59,0.394-1.168,0.495-1.733
		c0.101-0.616,0.165-1.181,0.19-1.695c0.024-0.514,0.037-0.976,0.037-1.387c0-1.746-0.227-3.506-0.681-5.278
		c-0.453-1.772-1.109-3.556-1.967-5.354c-0.454-0.873-0.945-1.669-1.476-2.388c-0.529-0.719-1.146-1.335-1.853-1.849
		c-0.707-0.513-1.451-0.911-2.232-1.194c-0.781-0.282-1.626-0.424-2.533-0.424c-1.229,0-2.341,0.257-3.338,0.771
		c-0.998,0.514-1.906,1.232-2.724,2.157c-0.665,0.976-1.164,2.029-1.496,3.159c-0.282,0.976-0.422,1.978-0.422,3.004
		c0,0.154,0,0.309,0,0.462C22.372,31.875,22.6,33.544,23.057,35.239z M69.406,38.398v15.023h4.7V38.398h15.022v-5.47H74.106V17.905
		h-4.7v15.023H54.383v5.47H69.406z"/>
</g>
</svg>
