<?xml version="1.0" encoding="utf-8"?>
<!-- Generator: Adobe Illustrator 16.0.0, SVG Export Plug-In . SVG Version: 6.00 Build 0)  -->
<!DOCTYPE svg PUBLIC "-//W3C//DTD SVG 1.1//EN" "http://www.w3.org/Graphics/SVG/1.1/DTD/svg11.dtd">
<svg version="1.1" id="Layer_1" xmlns="http://www.w3.org/2000/svg" xmlns:xlink="http://www.w3.org/1999/xlink" x="0px" y="0px"
	 width="218.999px" height="61.333px" viewBox="0 0 218.999 61.333" enable-background="new 0 0 218.999 61.333"
	 xml:space="preserve">
<g>
	<path d="M22.048,0.231h2.215v2.215v5.66v2.215h-2.215H10.235v15.434h6.152h2.18v2.215v5.66v2.18h-2.18h-6.152v15.469h11.812h2.215
		v2.18v5.66v2.215h-2.215H2.36h-2.18v-2.215V2.446V0.231h2.18H22.048z"/>
	<path d="M37.06,0.231h2.18v2.215v48.832h11.355h2.215v2.18v5.66v2.215h-2.215h-19.23h-2.18v-2.215V2.446V0.231h2.18H37.06z"/>
	<path d="M78.474,0.231h2.215v2.215v5.66v2.215h-2.215H66.661v15.434h6.152h2.18v2.215v5.66v2.18h-2.18h-6.152v15.469h11.812h2.215
		v2.18v5.66v2.215h-2.215H58.786h-2.18v-2.215V2.446V0.231h2.18H78.474z"/>
	<path d="M108.708,4.239c2.648,2.625,3.973,5.812,3.973,9.562v1.406v2.215h-2.215h-5.66h-2.215v-2.215v-1.406
		c0-0.961-0.34-1.781-1.02-2.461c-0.656-0.68-1.465-1.02-2.426-1.02s-1.781,0.34-2.461,1.02s-1.02,1.5-1.02,2.461v33.996
		c0,0.961,0.34,1.781,1.02,2.461c0.703,0.68,1.523,1.02,2.461,1.02s1.746-0.34,2.426-1.02s1.02-1.5,1.02-2.461v-1.406v-2.215h2.215
		h5.66h2.215v2.215v1.406c0,3.727-1.324,6.914-3.973,9.562s-5.836,3.973-9.562,3.973c-3.773,0-6.961-1.324-9.562-3.973
		c-2.648-2.648-3.973-5.836-3.973-9.562V13.802c0-3.75,1.324-6.938,3.973-9.562c2.625-2.672,5.812-4.008,9.562-4.008
		C102.849,0.231,106.036,1.567,108.708,4.239z"/>
	<path d="M117.462,10.321h-2.215V8.106v-5.66V0.231h2.215h8.508h5.66h8.508h2.18v2.215v5.66v2.215h-2.18h-6.293v48.797v2.215h-2.215
		h-5.66h-2.215v-2.215V10.321H117.462z"/>
	<path d="M153.989,0.231h2.18v2.215v56.672v2.215h-2.18h-5.695h-2.18v-2.215V2.446V0.231h2.18H153.989z"/>
	<path d="M174.38,20.481l1.758,10.406l1.793-10.406l0.949-5.66l2.18-12.762l0.316-1.828h1.863h5.66h2.602l-0.422,2.602
		l-9.703,56.672l-0.316,1.828h-1.863h-6.117h-1.863l-0.316-1.828l-9.668-56.672l-0.457-2.602h2.602h5.66h1.863l0.316,1.828
		l2.18,12.762L174.38,20.481z"/>
	<path d="M216.744,0.231h2.215v2.215v5.66v2.215h-2.215h-11.813v15.434h6.153h2.18v2.215v5.66v2.18h-2.18h-6.153v15.469h11.813
		h2.215v2.18v5.66v2.215h-2.215h-19.688h-2.18v-2.215V2.446V0.231h2.18H216.744z"/>
</g>
</svg>
